<svg xmlns="http://www.w3.org/2000/svg" viewBox="0 0 900 600"><defs><linearGradient id="sky" x2="0" y2="1"><stop stop-color="#b9d8e7"/><stop offset=".62" stop-color="#e8eee8"/><stop offset=".63" stop-color="#8da36d"/><stop offset="1" stop-color="#3d5435"/></linearGradient><radialGradient id="shade"><stop stop-color="#333"/><stop offset="1" stop-color="#080808"/></radialGradient></defs><rect width="900" height="600" fill="url(#sky)"/><circle cx="760" cy="125" r="55" fill="#fff" opacity=".5"/><g opacity=".35" fill="#fff"><circle cx="130" cy="110" r="50"/><circle cx="180" cy="90" r="35"/><circle cx="235" cy="120" r="45"/></g><path d="M120 500 Q450 155 780 500Z" fill="url(#shade)" stroke="#171717" stroke-width="10"/><path d="M450 195 V535" stroke="#202020" stroke-width="16"/><path d="M150 500 Q450 210 750 500" fill="none" stroke="#777" stroke-width="3" opacity=".55"/><rect x="285" y="315" width="330" height="125" rx="18" fill="#090909" opacity=".72"/><text x="450" y="365" fill="#f4f4f4" font-family="Arial,sans-serif" font-size="36" letter-spacing="6" text-anchor="middle">ILLUMIN8</text><path d="M345 390 C385 370 415 370 450 390 C485 410 515 410 555 390 C515 370 485 370 450 390 C415 410 385 410 345 390Z" fill="none" stroke="#eee" stroke-width="2"/><text x="450" y="420" fill="#ddd" font-family="Arial,sans-serif" font-size="11" letter-spacing="4" text-anchor="middle">CREATIVE STUDIO</text><ellipse cx="450" cy="540" rx="250" ry="28" fill="#111" opacity=".3"/></svg>